<?xml version="1.0" encoding="utf-8"?>
<!-- Generator: Adobe Illustrator 19.0.0, SVG Export Plug-In . SVG Version: 6.00 Build 0)  -->
<svg version="1.1" id="Layer_1" xmlns="http://www.w3.org/2000/svg" xmlns:xlink="http://www.w3.org/1999/xlink" x="0px" y="0px"
	 width="350px" height="140px" viewBox="0 0 350 140" style="enable-background:new 0 0 350 140;" xml:space="preserve">
<style type="text/css">
	.st0{fill:#B1B7BC;}
	.st1{fill:#E64F3A;}
	.st2{fill:#D6E0EA;}
</style>
<g id="icon" transform="translate(-2.4722222222222285 -2.4722222222222285) scale(4.94 4.94)">
	<path id="XMLID_7_" class="st0" d="M36.7,9V8.5c0-0.5-0.4-0.8-0.8-0.8l0,0C35.4,7.6,35,8,35,8.5V9H36.7z"/>
	<path id="XMLID_6_" class="st0" d="M37.7,20.8c0,1-0.8,1.8-1.8,1.8s-1.8-0.8-1.8-1.8C35.3,20,36.5,20,37.7,20.8z"/>
	<path id="XMLID_5_" class="st1" d="M42.5,18.8h-0.2c-0.7,0-1.2-0.5-1.2-1.2v-3.5c0-2.8-2.3-5.1-5.1-5.1s-5.1,2.3-5.1,5.1v3.5
		c0,0.7-0.5,1.2-1.2,1.2h-0.2c-0.5,0-1,0.4-1,1c0,0.5,0.4,1,1,1h0.2h6.4h6.4h0.2c0.5,0,1-0.4,1-1C43.5,19.2,43,18.8,42.5,18.8z"/>
	<path id="XMLID_4_" class="st2" d="M30,11.7L30,11.7c-0.2,0-0.2-0.1-0.2-0.2c0.6-1.6,1.9-2.9,3.4-3.5c0.1,0,0.2,0,0.2,0.1
		s0,0.2-0.1,0.2c-1.5,0.6-2.6,1.9-3.2,3.3C30.1,11.6,30.1,11.7,30,11.7z"/>
	<path id="XMLID_3_" class="st2" d="M29.3,10.1C29.3,10.1,29.2,10,29.3,10.1c-0.2-0.1-0.2-0.2-0.2-0.3c0.6-1.1,1.5-2,2.5-2.7
		c0.1-0.1,0.2,0,0.2,0.1c0.1,0.1,0,0.2-0.1,0.2c-1,0.6-1.8,1.5-2.4,2.5C29.4,10,29.3,10.1,29.3,10.1z"/>
	<path id="XMLID_2_" class="st2" d="M41.8,11.7c-0.1,0-0.1,0-0.2-0.1c-0.6-1.5-1.8-2.7-3.2-3.3c-0.1,0-0.1-0.1-0.1-0.2
		C38.3,8,38.4,8,38.5,8c1.5,0.7,2.8,2,3.4,3.5C42,11.5,41.9,11.6,41.8,11.7L41.8,11.7z"/>
	<path id="XMLID_1_" class="st2" d="M42.5,10.1c-0.1,0-0.1,0-0.2-0.1c-0.6-1-1.4-1.9-2.4-2.5c-0.1-0.1-0.1-0.2-0.1-0.2
		C39.9,7.2,40,7.2,40,7.2c1,0.7,1.9,1.6,2.5,2.7C42.7,9.9,42.7,10,42.5,10.1C42.6,10,42.5,10.1,42.5,10.1z"/>
</g>
</svg>
