<?xml version="1.0" encoding="utf-8"?>
<!-- Generator: Adobe Illustrator 19.0.0, SVG Export Plug-In . SVG Version: 6.00 Build 0)  -->
<svg version="1.1" id="Layer_1" xmlns="http://www.w3.org/2000/svg" xmlns:xlink="http://www.w3.org/1999/xlink" x="0px" y="0px"
	 width="350px" height="140px" viewBox="0 0 350 140" style="enable-background:new 0 0 350 140;" xml:space="preserve">
<style type="text/css">
	.st0{fill:#F8CC1D;}
	.st1{fill:#FFFFFF;}
</style>
<g id="icon" transform="translate(-2.4722222222222285 -2.4722222222222285) scale(4.94 4.94)">
	<path class="st0" d="M42.6,10.7c-0.1,0-0.1,0-0.1-0.1c-1-1.8-2.9-2.9-4.9-2.9c-1.7,0-3.3,0.8-4.4,2.1c-0.1,0.1-0.2,0.1-0.2,0
		c-0.1-0.1-0.1-0.2,0-0.2c1.1-1.4,2.8-2.3,4.7-2.3c2.2,0,4.1,1.2,5.2,3C42.8,10.5,42.7,10.6,42.6,10.7
		C42.6,10.7,42.6,10.7,42.6,10.7z"/>
	<path class="st0" d="M34,22c-1.8,0-3.5-0.8-4.7-2.3c-0.1-0.1,0-0.2,0-0.2c0.1-0.1,0.2,0,0.2,0c1.1,1.4,2.7,2.1,4.4,2.1
		c2,0,3.9-1.1,4.9-2.9c0-0.1,0.1-0.1,0.2-0.1c0.1,0,0.1,0.1,0.1,0.2C38.2,20.9,36.2,22,34,22z"/>
	<path class="st0" d="M43.3,11.5h-0.2v-0.2c0-0.1-0.1-0.2-0.2-0.2s-0.2,0.1-0.2,0.2v0.2h-0.2c-0.1,0-0.2,0.1-0.2,0.2
		c0,0.1,0.1,0.2,0.2,0.2h0.2V12c0,0.1,0.1,0.2,0.2,0.2s0.2-0.1,0.2-0.2v-0.2h0.2c0.1,0,0.2-0.1,0.2-0.2
		C43.5,11.5,43.4,11.5,43.3,11.5z"/>
	<path class="st0" d="M32.9,8.1c-0.1,0-0.3-0.1-0.4-0.1c-0.1-0.1-0.1-0.2-0.1-0.4c0-0.1,0.1-0.3,0.1-0.4C32.7,7,33,7,33.2,7.2
		c0.2,0.2,0.2,0.5,0,0.7C33.1,8,33,8.1,32.9,8.1z M32.9,7.4c0,0-0.1,0-0.1,0.1c0,0-0.1,0.1-0.1,0.1c0,0,0,0.1,0.1,0.1
		c0.1,0.1,0.2,0.1,0.2,0c0.1-0.1,0.1-0.2,0-0.2C33,7.4,32.9,7.4,32.9,7.4z"/>
	<path class="st0" d="M31,17.9c0,0-0.1,0-0.1,0c-1.4-1.1-2.3-2.8-2.3-4.7c0-2.2,1.2-4.1,3-5.2c0.1,0,0.2,0,0.2,0.1
		c0,0.1,0,0.2-0.1,0.2c-1.8,1-2.9,2.9-2.9,4.9c0,1.7,0.8,3.3,2.1,4.4c0.1,0.1,0.1,0.2,0,0.2C31.1,17.8,31,17.9,31,17.9z"/>
	<path class="st0" d="M40.9,21.3c-0.1,0-0.1,0-0.1-0.1c-0.1-0.1,0-0.2,0-0.2c1.4-1.1,2.1-2.7,2.1-4.4c0-2-1.1-3.9-2.9-4.9
		c-0.1,0-0.1-0.1-0.1-0.2c0-0.1,0.1-0.1,0.2-0.1c1.9,1.1,3,3.1,3,5.2c0,1.8-0.8,3.5-2.3,4.7C40.9,21.3,40.9,21.3,40.9,21.3z"/>
	<path class="st0" d="M39.8,22.3c-0.1,0-0.3-0.1-0.4-0.1c-0.2-0.2-0.2-0.5,0-0.7c0.2-0.2,0.5-0.2,0.7,0l0,0c0.2,0.2,0.2,0.5,0,0.7
		C40.1,22.3,39.9,22.3,39.8,22.3z M39.8,21.6c0,0-0.1,0-0.1,0.1c-0.1,0.1-0.1,0.2,0,0.2c0.1,0.1,0.2,0.1,0.2,0
		c0.1-0.1,0.1-0.2,0-0.2l0,0C39.9,21.6,39.8,21.6,39.8,21.6z"/>
	<path class="st0" d="M29.2,18.5H29v-0.2c0-0.1-0.1-0.2-0.2-0.2c-0.1,0-0.2,0.1-0.2,0.2v0.2h-0.2c-0.1,0-0.2,0.1-0.2,0.2
		c0,0.1,0.1,0.2,0.2,0.2h0.2V19c0,0.1,0.1,0.2,0.2,0.2c0.1,0,0.2-0.1,0.2-0.2v-0.2h0.2c0.1,0,0.2-0.1,0.2-0.2
		C29.3,18.6,29.3,18.5,29.2,18.5z"/>
	<path class="st1" d="M39.7,11h-5.9c-0.1,0-0.2,0.1-0.2,0.2v1.1H38c0.3,0,0.6,0.2,0.6,0.6v2.6h1.1c0.1,0,0.2-0.1,0.2-0.2h0v-4
		C40,11.1,39.9,11,39.7,11z"/>
	<path class="st1" d="M38,12.7h-5.9c-0.1,0-0.2,0.1-0.2,0.2v4c0,0.1,0.1,0.2,0.2,0.2h3.7c0.1,0,0.1,0,0.1,0.1l1.1,1.4
		c0,0,0.1,0,0.1,0c0,0,0.1,0,0.1-0.1v-1.2c0-0.1,0.1-0.2,0.2-0.2H38c0.1,0,0.2-0.1,0.2-0.2v-4C38.3,12.8,38.2,12.7,38,12.7z"/>
	<path d="M39.7,10.7h-5.9c-0.3,0-0.6,0.2-0.6,0.6v1.1h-1.1c-0.3,0-0.6,0.2-0.6,0.6v4c0,0.3,0.2,0.6,0.6,0.6h3.6l1.1,1.3
		c0.1,0.1,0.2,0.2,0.3,0.2c0,0,0.1,0,0.1,0c0.2-0.1,0.3-0.2,0.3-0.4v-1H38c0.3,0,0.6-0.2,0.6-0.6v-1.1h1.1c0.3,0,0.6-0.2,0.6-0.6v-4
		C40.3,10.9,40,10.7,39.7,10.7z M38.3,17c0,0.1-0.1,0.2-0.2,0.2h-0.7c-0.1,0-0.2,0.1-0.2,0.2v1.2c0,0.1,0,0.1-0.1,0.1
		c0,0-0.1,0-0.1,0L36,17.3c0,0-0.1-0.1-0.1-0.1h-3.7c-0.1,0-0.2-0.1-0.2-0.2v-4c0-0.1,0.1-0.2,0.2-0.2H38c0.1,0,0.2,0.1,0.2,0.2V17z
		 M40,15.3L40,15.3c0,0.1-0.1,0.2-0.2,0.2h-1.1v-2.6c0-0.3-0.2-0.6-0.6-0.6h-4.4v-1.1c0-0.1,0.1-0.2,0.2-0.2h5.9
		c0.1,0,0.2,0.1,0.2,0.2V15.3z"/>
	<circle class="st0" cx="35.4" cy="14.9" r="1.7"/>
</g>
</svg>
