<?xml version="1.0" encoding="utf-8"?>
<!-- Generator: Adobe Illustrator 19.0.0, SVG Export Plug-In . SVG Version: 6.00 Build 0)  -->
<svg version="1.1" id="Layer_1" xmlns="http://www.w3.org/2000/svg" xmlns:xlink="http://www.w3.org/1999/xlink" x="0px" y="0px"
	 width="350px" height="140px" viewBox="0 0 350 140" style="enable-background:new 0 0 350 140;" xml:space="preserve">
<style type="text/css">
	.st0{fill:#C6463A;}
	.st1{fill:#C2B310;}
	.st2{fill:#A34040;}
</style>
<g id="icon" transform="translate(-2.4722222222222285 -2.4722222222222285) scale(4.94 4.94)">
	<path class="st0" d="M48.4,20.1h-1c-0.3,0-0.6-0.3-0.6-0.6c0-0.3,0.3-0.6,0.6-0.6h1c2.1,0,3.8-1.7,3.8-3.8c0-2-1.6-3.6-3.5-3.8
		l-0.6,0l0.1-0.6c0-0.3,0.1-0.6,0.1-0.9c0-4.3-3.5-7.7-7.7-7.7c-2.7,0-5.1,1.4-6.5,3.6l-0.3,0.4L33.1,6c-0.9-0.5-1.8-0.7-2.8-0.7
		c-3.2,0-5.8,2.5-5.9,5.6l0,0.4L24,11.5c-1.8,0.3-3.1,1.9-3.1,3.7c0,2.1,1.7,3.8,3.8,3.8h5.2c0.3,0,0.6,0.3,0.6,0.6
		s-0.3,0.6-0.6,0.6h-5.2c-2.7,0-4.9-2.2-4.9-4.9c0-2.2,1.5-4.1,3.6-4.7c0.4-3.6,3.4-6.3,7-6.3c1,0,2,0.2,2.9,0.6
		c1.7-2.3,4.3-3.7,7.2-3.7c4.9,0,8.8,4,8.8,8.8c0,0.1,0,0.3,0,0.5c2.3,0.4,4,2.4,4,4.8C53.3,17.9,51.1,20.1,48.4,20.1z"/>
	<path class="st1" d="M44.9,10.5c-0.3,0-0.6-0.3-0.6-0.6c0-2.2-1.8-3.9-3.9-3.9c-0.3,0-0.6-0.3-0.6-0.6c0-0.3,0.3-0.6,0.6-0.6
		c2.8,0,5,2.3,5,5C45.4,10.2,45.2,10.5,44.9,10.5z"/>
	<path class="st1" d="M27.9,11.5C27.9,11.5,27.9,11.5,27.9,11.5c-0.3,0-0.6-0.3-0.6-0.6c0.1-1.6,1.4-2.9,3-2.9
		c0.3,0,0.6,0.3,0.6,0.6c0,0.3-0.3,0.6-0.6,0.6c-1,0-1.8,0.8-1.9,1.8C28.4,11.2,28.2,11.5,27.9,11.5z"/>
	<path class="st2" d="M42.8,13.4c-1.1-1.1-2.5-1.7-4.1-1.7c-1.5,0-3,0.6-4.1,1.7c-2.1,2.1-2.2,5.5-0.4,7.8L33.5,22
		c-0.5-0.2-1.2-0.1-1.7,0.3l-2.9,2.9c-0.6,0.6-0.6,1.5,0,2.1c0.3,0.3,0.7,0.4,1.1,0.4c0.4,0,0.8-0.1,1.1-0.4l2.9-2.9
		c0.4-0.4,0.6-1.1,0.3-1.7l0.8-0.8c1.1,0.9,2.4,1.3,3.7,1.3c1.5,0,3-0.6,4.1-1.7c1.1-1.1,1.7-2.5,1.7-4.1S43.9,14.5,42.8,13.4z
		 M33.2,23.6l-2.9,2.9c-0.2,0.2-0.4,0.2-0.6,0c-0.2-0.2-0.2-0.4,0-0.6l2.9-2.9c0.1-0.1,0.2-0.1,0.3-0.1c0.1,0,0.2,0,0.3,0.1
		c0.1,0.1,0.1,0.2,0.1,0.3C33.3,23.5,33.3,23.6,33.2,23.6z M42,20.8c-1.8,1.8-4.8,1.8-6.6,0c-1.8-1.8-1.8-4.8,0-6.6
		c0.9-0.9,2.1-1.4,3.3-1.4c1.2,0,2.4,0.5,3.3,1.4c0.9,0.9,1.4,2.1,1.4,3.3S42.9,20,42,20.8z"/>
</g>
</svg>
