<?xml version="1.0" encoding="utf-8"?>
<!-- Generator: Adobe Illustrator 19.0.0, SVG Export Plug-In . SVG Version: 6.00 Build 0)  -->
<svg version="1.1" id="Layer_1" xmlns="http://www.w3.org/2000/svg" xmlns:xlink="http://www.w3.org/1999/xlink" x="0px" y="0px"
	 width="350px" height="140px" viewBox="0 0 350 140" style="enable-background:new 0 0 350 140;" xml:space="preserve">
<style type="text/css">
	.st0{fill:#F8CC1D;}
	.st1{fill:#FFFFFF;}
</style>
<desc>Created with Fabric.js 1.7.22</desc>
<g id="icon_1_" transform="translate(-2.4722222222222285 -2.4722222222222285) scale(4.94 4.94)">
	<path class="st0" d="M31.9,15.2h-1.7c-0.1,0-0.2-0.1-0.2-0.2s0.1-0.2,0.2-0.2h1.7c0.1,0,0.2,0.1,0.2,0.2
		C32.1,15.1,32,15.2,31.9,15.2z"/>
	<path class="st0" d="M33.1,12.3c0,0-0.1,0-0.1-0.1l-1.2-1.2c-0.1-0.1-0.1-0.2,0-0.3c0.1-0.1,0.2-0.1,0.3,0l1.2,1.2
		c0.1,0.1,0.1,0.2,0,0.3C33.2,12.3,33.1,12.3,33.1,12.3z"/>
	<path class="st0" d="M28.6,15l0.2-0.2c0.1-0.1,0.1-0.2,0-0.3s-0.2-0.1-0.3,0l-0.2,0.2l-0.2-0.2c-0.1-0.1-0.2-0.1-0.3,0
		c-0.1,0.1-0.1,0.2,0,0.3l0.2,0.2l-0.2,0.2c-0.1,0.1-0.1,0.2,0,0.3c0,0,0.1,0.1,0.1,0.1c0,0,0.1,0,0.1-0.1l0.2-0.2l0.2,0.2
		c0,0,0.1,0.1,0.1,0.1s0.1,0,0.1-0.1c0.1-0.1,0.1-0.2,0-0.3L28.6,15z"/>
	<path class="st0" d="M30.5,10.3c-0.2,0-0.4-0.1-0.5-0.2c-0.3-0.3-0.3-0.7,0-1c0.3-0.3,0.7-0.3,1,0c0.3,0.3,0.3,0.7,0,1
		C30.9,10.2,30.7,10.3,30.5,10.3z M30.5,9.2c-0.1,0-0.2,0-0.2,0.1c-0.1,0.1-0.1,0.3,0,0.5c0.1,0.1,0.4,0.1,0.5,0
		c0.1-0.1,0.1-0.3,0-0.5C30.7,9.3,30.6,9.2,30.5,9.2z"/>
	<path class="st0" d="M31.9,19.2c0,0-0.1,0-0.1-0.1c-0.1-0.1-0.1-0.2,0-0.3l1.2-1.2c0.1-0.1,0.2-0.1,0.3,0s0.1,0.2,0,0.3L32,19.1
		C32,19.2,31.9,19.2,31.9,19.2z"/>
	<path class="st0" d="M30.5,21.1c-0.2,0-0.4-0.1-0.5-0.2c-0.3-0.3-0.3-0.7,0-1c0.3-0.3,0.7-0.3,1,0l0,0c0.3,0.3,0.3,0.7,0,1
		C30.9,21.1,30.7,21.1,30.5,21.1z M30.5,20.1c-0.1,0-0.2,0-0.2,0.1c-0.1,0.1-0.1,0.3,0,0.5c0.1,0.1,0.3,0.1,0.5,0
		c0.1-0.1,0.1-0.3,0-0.5C30.7,20.1,30.6,20.1,30.5,20.1z"/>
	<path class="st0" d="M41.6,15.2H40c-0.1,0-0.2-0.1-0.2-0.2s0.1-0.2,0.2-0.2h1.7c0.1,0,0.2,0.1,0.2,0.2
		C41.8,15.1,41.7,15.2,41.6,15.2z"/>
	<path class="st0" d="M38.8,12.3c0,0-0.1,0-0.1-0.1c-0.1-0.1-0.1-0.2,0-0.3l1.2-1.2c0.1-0.1,0.2-0.1,0.3,0s0.1,0.2,0,0.3l-1.2,1.2
		C38.9,12.3,38.8,12.3,38.8,12.3z"/>
	<path class="st0" d="M43.7,15l0.2-0.2c0.1-0.1,0.1-0.2,0-0.3s-0.2-0.1-0.3,0l-0.2,0.2l-0.2-0.2c-0.1-0.1-0.2-0.1-0.3,0
		s-0.1,0.2,0,0.3l0.2,0.2L43,15.2c-0.1,0.1-0.1,0.2,0,0.3c0,0,0.1,0.1,0.1,0.1c0,0,0.1,0,0.1-0.1l0.2-0.2l0.2,0.2
		c0,0,0.1,0.1,0.1,0.1c0,0,0.1,0,0.1-0.1c0.1-0.1,0.1-0.2,0-0.3L43.7,15z"/>
	<path class="st0" d="M41.3,10.3c-0.2,0-0.4-0.1-0.5-0.2l0,0l0,0c-0.3-0.3-0.3-0.7,0-1c0.3-0.3,0.7-0.3,1,0c0.3,0.3,0.3,0.7,0,1
		C41.7,10.2,41.5,10.3,41.3,10.3z M41.3,9.2c-0.1,0-0.2,0-0.2,0.1c-0.1,0.1-0.1,0.3,0,0.5l0,0c0.1,0.1,0.4,0.1,0.5,0
		c0.1-0.1,0.1-0.3,0-0.5C41.5,9.3,41.4,9.2,41.3,9.2z"/>
	<path class="st0" d="M40,19.2c0,0-0.1,0-0.1-0.1L38.7,18c-0.1-0.1-0.1-0.2,0-0.3c0.1-0.1,0.2-0.1,0.3,0l1.2,1.2
		c0.1,0.1,0.1,0.2,0,0.3C40.1,19.2,40,19.2,40,19.2z"/>
	<path class="st0" d="M41.3,21.1c-0.2,0-0.4-0.1-0.5-0.2c-0.3-0.3-0.3-0.7,0-1c0.3-0.3,0.7-0.3,1,0c0.3,0.3,0.3,0.7,0,1
		C41.7,21.1,41.5,21.1,41.3,21.1z M41.3,20.1c-0.1,0-0.2,0-0.2,0.1c-0.1,0.1-0.1,0.3,0,0.5c0.1,0.1,0.3,0.1,0.5,0
		c0.1-0.1,0.1-0.3,0-0.5C41.5,20.1,41.4,20.1,41.3,20.1z"/>
	<circle class="st1" cx="35.9" cy="12" r="1"/>
	<path class="st1" d="M35.5,10.9L34,13.1c-0.1,0.1-0.1,0.2-0.1,0.3l0,5.4c0,0.2,0.3,0.4,0.6,0.4h2.9c0.3,0,0.6-0.2,0.6-0.4l0-5.4
		c0-0.1,0-0.2-0.1-0.3l-1.5-2.1c-0.1-0.1-0.1-0.1-0.2-0.2c0,0.2,0,0.4,0,0.7c0.2,0.1,0.4,0.3,0.4,0.5c0,0.3-0.3,0.6-0.6,0.6
		c-0.3,0-0.6-0.3-0.6-0.6c0-0.3,0.2-0.5,0.4-0.5c0-0.2,0-0.5,0-0.7C35.6,10.8,35.5,10.8,35.5,10.9z"/>
	<path d="M38.3,13.4c0-0.2-0.1-0.4-0.2-0.5l-1.5-2.1c-0.1-0.2-0.3-0.3-0.5-0.3c0-0.9-0.2-1.5-0.5-1.9c-0.1-0.1-0.2-0.2-0.3-0.3
		c-0.1-0.1-0.2,0-0.2,0.1c0,0.1,0,0.2,0,0.2c0,0,0,0,0,0c0.3,0.2,0.5,0.8,0.6,1.8c-0.2,0-0.4,0.2-0.6,0.3l-1.5,2.1
		c-0.1,0.2-0.2,0.3-0.2,0.5l0,5.4c0,0.4,0.4,0.8,0.9,0.8h2.9c0.5,0,0.9-0.4,0.9-0.8L38.3,13.4z M35.9,11.8c0.1,0,0.2,0.1,0.2,0.2
		c0,0.1-0.1,0.2-0.2,0.2c-0.1,0-0.2-0.1-0.2-0.2C35.7,11.9,35.8,11.8,35.9,11.8z M37.4,19.3h-2.9c-0.3,0-0.6-0.2-0.6-0.4l0-5.4
		c0-0.1,0-0.2,0.1-0.3l1.5-2.1c0.1-0.1,0.2-0.1,0.3-0.2c0,0.2,0,0.4,0,0.7c-0.2,0.1-0.4,0.3-0.4,0.5c0,0.3,0.3,0.6,0.6,0.6
		c0.3,0,0.6-0.3,0.6-0.6c0-0.2-0.2-0.5-0.4-0.5c0-0.2,0-0.5,0-0.7c0.1,0,0.2,0.1,0.2,0.2l1.5,2.1c0.1,0.1,0.1,0.2,0.1,0.3l0,5.4
		C38,19.1,37.7,19.3,37.4,19.3z"/>
	<circle class="st0" cx="35.9" cy="15" r="1.4"/>
</g>
</svg>
