<?xml version="1.0" encoding="utf-8"?>
<!-- Generator: Adobe Illustrator 19.0.0, SVG Export Plug-In . SVG Version: 6.00 Build 0)  -->
<svg version="1.1" id="Layer_1" xmlns="http://www.w3.org/2000/svg" xmlns:xlink="http://www.w3.org/1999/xlink" x="0px" y="0px"
	 width="350px" height="140px" viewBox="0 0 350 140" style="enable-background:new 0 0 350 140;" xml:space="preserve">
<style type="text/css">
	.st0{fill:#F9503A;}
	.st1{fill:#E97D6F;}
</style>
<g id="icon_1_" transform="translate(-2.4722222222222285 -2.4722222222222285) scale(4.94 4.94)">
	<path class="st0" d="M35.9,22.4c0,0-0.1,0-0.1,0c-5.4-2.7-7.4-6.6-7.5-9.3c-0.1-1.8,0.7-3.3,2-4.1c1.5-0.9,3.5-0.7,5.6,0.6
		C38,8.4,40,8.2,41.5,9c1.3,0.7,2,2.3,2,4.1c-0.1,2.7-2.1,6.6-7.5,9.3C36,22.4,35.9,22.4,35.9,22.4z"/>
	<path class="st1" d="M30.2,14.5c-0.1,0-0.2-0.1-0.2-0.2c-0.4-1.2-0.1-2.6,0.6-3.4c0.5-0.6,1.3-0.9,2-0.7c0.1,0,0.2,0.2,0.2,0.3
		c0,0.1-0.2,0.2-0.3,0.2c-0.6-0.1-1.1,0.1-1.5,0.6c-0.6,0.7-0.8,1.9-0.5,2.9C30.5,14.3,30.5,14.4,30.2,14.5
		C30.3,14.5,30.3,14.5,30.2,14.5z"/>
</g>
</svg>
