<?xml version="1.0" encoding="utf-8"?>
<!-- Generator: Adobe Illustrator 19.0.0, SVG Export Plug-In . SVG Version: 6.00 Build 0)  -->
<svg version="1.1" id="Layer_1" xmlns="http://www.w3.org/2000/svg" xmlns:xlink="http://www.w3.org/1999/xlink" x="0px" y="0px"
	 viewBox="-49 141 512 512" style="enable-background:new -49 141 512 512;" xml:space="preserve">
<g transform="matrix(1 0 0 -1 0 435)">
	<path d="M202,67.8c12.7,0,28.3-7.8,47-23.5s40.3-34.5,65-56.5s47.7-38.3,69-49c-29.3-32-63.8-57-103.5-75s-71.8-26.7-96.5-26
		c-24,24.7-41,55.5-51,92.5s-13.3,68.5-10,94.5l-11-6c-4.7-3.3-9-2.3-13,3l-8,11c-3.3,5.3-2.3,9.7,3,13l7,3c-4,4.7-10.3,9.5-19,14.5
		s-14.7,9.2-18,12.5l37,21c-2,2-3.7,4.3-5,7l-58,80c-5.3,8-7.2,17.5-5.5,28.5c1.7,11,6.2,18.5,13.5,22.5c10,4,19.7,4.5,29,1.5
		s15.7-8.5,19-16.5l42-92c1.3-2.7,2.3-5,3-7l34,19c1.3-5.3,2.2-12.3,2.5-21s1.5-16.3,3.5-23l7,4c6,3.3,10.7,2,14-4l8-13
		C210.4,76.1,208.7,71.1,202,67.8z"/>
</g>
</svg>
